<svg width="33" height="33" viewBox="0 0 33 33" fill="none" xmlns="http://www.w3.org/2000/svg">
<path d="M28.7582 2.17845L29.1057 2.20726C30.9108 2.35689 32.2543 3.9433 32.1047 5.74836L32.0759 6.09592C31.7149 10.4316 29.6469 14.4465 26.3266 17.2579L25.3997 18.0446C24.7644 18.5827 24.1065 19.0964 23.4304 19.5822L22.9336 25.5747C22.8394 26.7109 22.1635 27.7159 21.1463 28.2299L15.6984 30.9899C15.507 31.0874 15.2957 31.1396 15.081 31.1426C14.8662 31.1456 14.6536 31.0993 14.4595 31.0073C14.2654 30.9152 14.095 30.7799 13.9615 30.6117C13.8279 30.4434 13.7347 30.2468 13.689 30.0369L12.3869 24.0928C12.2964 24.0142 12.2123 23.9286 12.1353 23.8368L7.97255 18.9236C7.89532 18.8325 7.82536 18.7355 7.76331 18.6334L2.11471 16.3703C1.9152 16.2907 1.7366 16.1664 1.59267 16.007C1.44873 15.8475 1.34329 15.6572 1.28445 15.4506C1.22562 15.244 1.21496 15.0267 1.25329 14.8153C1.29162 14.6039 1.37793 14.4042 1.50557 14.2314L5.13054 9.31282C5.46229 8.86124 5.90429 8.50225 6.41431 8.27015C6.92433 8.03805 7.48535 7.94059 8.04376 7.98708L14.0307 8.48336C14.6212 7.89639 15.2362 7.33213 15.8716 6.79403L16.8002 6.00932C18.4442 4.6168 20.3464 3.56177 22.3981 2.90446C24.4499 2.24715 26.6111 2.00045 28.7582 2.17845ZM18.6186 8.15436L18.6149 8.15405L17.6881 8.93893C16.1502 10.2413 14.7554 11.7024 13.5263 13.2975L10.3645 17.3947L14.037 21.731L18.5988 19.287C20.3746 18.3374 22.0454 17.2021 23.5813 15.8996L24.51 15.1148C25.8722 13.961 26.9938 12.5501 27.8107 10.9627C28.6276 9.37532 29.1239 7.64258 29.2711 5.86342L29.2999 5.51586C29.3102 5.39197 29.2708 5.26907 29.1905 5.1742C29.1102 5.07933 28.9954 5.02026 28.8715 5.00999L28.524 4.98118C24.932 4.68375 21.3691 5.82515 18.6186 8.15436ZM6.87523 27.7581C5.39404 29.0126 2.35207 29.3493 1.08229 29.4378C1.0138 29.4431 0.945022 29.4322 0.881508 29.406C0.817995 29.3798 0.761515 29.3391 0.716619 29.2871C0.672724 29.2342 0.641852 29.1718 0.626488 29.1049C0.611124 29.0379 0.611698 28.9683 0.628163 28.9016C0.924562 27.6637 1.75757 24.7187 3.24219 23.4683C3.51962 23.2019 3.84869 22.9951 4.2091 22.8607C4.56952 22.7263 4.95365 22.6672 5.33779 22.687C5.72194 22.7068 6.09796 22.8051 6.44267 22.9757C6.78737 23.1464 7.09346 23.3859 7.34205 23.6795C7.59065 23.973 7.77647 24.3143 7.88807 24.6824C7.99967 25.0505 8.03469 25.4376 7.99094 25.8198C7.9472 26.2019 7.82564 26.5711 7.63375 26.9045C7.44186 27.2378 7.18371 27.5284 6.87523 27.7581ZM20.4528 21.4802C20.279 21.5787 20.1037 21.6733 19.9286 21.766L15.3018 24.2441L16.0496 27.6607L19.8774 25.7203C19.9488 25.6841 20.0098 25.6302 20.0545 25.5637C20.0992 25.4973 20.1262 25.4205 20.1327 25.3407L20.4528 21.4802ZM8.09386 15.7352L11.3019 11.5798C11.4242 11.4206 11.5481 11.2653 11.6719 11.11L7.80955 10.7898C7.72974 10.7832 7.64956 10.7971 7.57666 10.8302C7.50376 10.8634 7.44057 10.9147 7.39311 10.9792L4.84876 14.4371L8.09386 15.7352ZM24.1269 11.2017C24.0858 11.6973 23.8496 12.1562 23.4701 12.4776C23.0906 12.799 22.599 12.9565 22.1034 12.9154C21.6079 12.8743 21.1489 12.6381 20.8275 12.2586C20.5061 11.8791 20.3487 11.3875 20.3897 10.8919C20.4308 10.3963 20.6671 9.93737 21.0466 9.61599C21.426 9.29461 21.9176 9.13714 22.4132 9.17822C22.9088 9.2193 23.3678 9.45556 23.6892 9.83504C24.0105 10.2145 24.168 10.7061 24.1269 11.2017Z" fill="#281366"/>
</svg>
